<?xml version="1.0" encoding="UTF-8"?>
<svg xmlns="http://www.w3.org/2000/svg" xmlns:xlink="http://www.w3.org/1999/xlink" width="0"
    height="0">    
    <symbol id="typescript"  viewBox="0 0 1024 1024">
        <g></g>
        <path fill="#007acc"
            d="M0 512v512h1024v-1024h-1024zM825.216 471.211c26.027 6.485 45.824 18.048 64.043 36.907 9.429 10.069 23.424 28.416 24.533 32.853 0.341 1.28-44.203 31.147-71.168 47.915-0.981 0.64-4.907-3.584-9.259-10.069-13.227-19.2-27.008-27.477-48.128-28.928-31.061-2.133-51.029 14.123-50.859 41.259-0.021 0.475-0.034 1.031-0.034 1.59 0 6.444 1.624 12.51 4.484 17.809l-0.098-0.199c6.827 14.123 19.541 22.613 59.307 39.808 73.344 31.573 104.704 52.352 124.203 81.92 21.76 32.981 26.667 85.675 11.861 124.843-16.213 42.581-56.533 71.509-113.28 81.067-17.536 3.115-59.136 2.645-77.995-0.768-41.131-7.339-80.128-27.648-104.192-54.315-9.429-10.368-27.819-37.547-26.667-39.467 0.469-0.683 4.693-3.285 9.387-6.016 4.608-2.603 21.803-12.544 38.059-21.973l29.44-17.067 6.187 9.131c8.619 13.141 27.435 31.189 38.827 37.205 32.683 17.237 77.525 14.805 99.627-5.035 8.22-6.956 13.403-17.28 13.403-28.814 0-0.67-0.018-1.337-0.052-1.998l0.004 0.093c0-11.861-1.493-17.067-7.68-26.027-7.936-11.349-24.192-20.907-70.357-40.96-52.821-22.741-75.563-36.864-96.384-59.307-12.556-14.254-22.22-31.382-27.871-50.244l-0.246-0.956c-3.883-14.464-4.864-50.731-1.792-65.323 10.88-51.072 49.408-86.613 105.003-97.195 18.048-3.413 59.989-2.133 77.696 2.261zM584.832 513.963l0.341 41.941h-133.333v378.709h-94.293v-378.709h-133.205v-41.131c0-22.784 0.469-41.813 1.109-42.24 0.512-0.683 81.621-1.024 179.925-0.853l178.987 0.512z"></path>
    </symbol>
    <symbol id="html5"  viewBox="0 0 1024 1024">
        <g></g>
        <path fill="#e34f26"
            d="M64 0h896l-81.493 920.021-367.488 103.979-365.397-104.021zM363.989 416l-9.899-115.968 429.184 0.128 9.813-111.872-562.176-0.128 29.781 341.76h389.376l-13.909 146.176-124.16 34.304-126.080-34.56-8.021-90.027h-111.317l14.080 177.963 231.339 61.867 229.504-61.568 31.744-348.032z"></path>
    </symbol>
    <symbol id="css3"  viewBox="0 0 1024 1024">
        <g></g>
        <path fill="#1572b6"
            d="M64 0h896l-81.493 920.021-367.488 103.979-365.44-104.021zM793.173 188.288l-562.347-0.128 9.088 111.872 432 0.085-10.88 115.883h-283.307l10.24 109.781h263.765l-15.616 150.315-124.16 34.304-126.123-34.56-8.021-90.027h-111.36l12.373 164.48 233.173 72.661 229.248-65.28z"></path>
    </symbol>
    <symbol id="github"  viewBox="0 0 1024 1024">
        <g></g>
        <path fill="#000"
            d="M512 12.672c-282.88 0-512 229.248-512 512 0 226.261 146.688 418.133 350.080 485.76 25.6 4.821 34.987-11.008 34.987-24.619 0-12.16-0.427-44.373-0.64-87.040-142.421 30.891-172.459-68.693-172.459-68.693-23.296-59.093-56.96-74.88-56.96-74.88-46.379-31.744 3.584-31.104 3.584-31.104 51.413 3.584 78.421 52.736 78.421 52.736 45.653 78.293 119.851 55.68 149.12 42.581 4.608-33.109 17.792-55.68 32.427-68.48-113.707-12.8-233.216-56.832-233.216-253.013 0-55.893 19.84-101.547 52.693-137.387-5.76-12.928-23.040-64.981 4.48-135.509 0 0 42.88-13.739 140.8 52.48 40.96-11.392 84.48-17.024 128-17.28 43.52 0.256 87.040 5.888 128 17.28 97.28-66.219 140.16-52.48 140.16-52.48 27.52 70.528 10.24 122.581 5.12 135.509 32.64 35.84 52.48 81.493 52.48 137.387 0 196.693-119.68 240-233.6 252.587 17.92 15.36 34.56 46.763 34.56 94.72 0 68.523-0.64 123.563-0.64 140.203 0 13.44 8.96 29.44 35.2 24.32 204.843-67.157 351.403-259.157 351.403-485.077 0-282.752-229.248-512-512-512z"></path>
    </symbol>
    <symbol id="react"  viewBox="0 0 1024 1024">
        <g></g>
        <path fill="#61dafb"
            d="M512 420.736c-50.404 0-91.264 40.86-91.264 91.264s40.86 91.264 91.264 91.264v0c50.404 0 91.264-40.86 91.264-91.264s-40.86-91.264-91.264-91.264v0zM256.341 693.547l-20.139-5.12c-150.101-37.931-236.203-102.315-236.203-176.597s86.101-138.667 236.203-176.597l20.139-5.077 5.675 19.968c17.427 59.534 37.207 110.167 60.77 158.621l-2.615-5.96 4.309 9.088-4.309 9.088c-21.008 42.541-40.79 93.177-56.362 145.624l-1.793 7.037zM226.859 381.867c-114.091 32.043-184.107 81.067-184.107 129.963 0 48.853 70.016 97.877 184.107 129.963 16.375-51.835 33.476-94.868 53.189-136.421l-2.757 6.459c-16.998-35.141-34.1-78.175-48.354-122.486l-2.078-7.477zM767.659 693.547l-5.675-20.011c-17.397-59.48-37.192-110.1-60.795-158.523l2.598 5.904-4.309-9.088 4.309-9.088c20.991-42.518 40.785-93.152 56.391-145.59l1.806-7.071 5.675-19.968 20.181 5.077c150.059 37.931 236.16 102.315 236.16 176.64s-86.101 138.667-236.16 176.597zM746.709 511.829c20.48 44.331 37.419 87.893 50.432 129.963 114.133-32.085 184.107-81.109 184.107-129.963 0-48.896-70.016-97.877-184.107-129.963-16.34 51.795-33.441 94.829-53.171 136.372l2.739-6.41zM226.56 381.653l-5.675-19.925c-42.197-148.736-29.397-255.317 35.115-292.523 63.275-36.523 164.864 6.613 271.317 115.883l14.507 14.891-14.507 14.891c-36.676 38.083-70.629 79.417-101.171 123.302l-2.168 3.29-5.76 8.235-10.027 0.853c-59.99 4.821-115.073 14.042-168.464 27.517l6.97-1.49zM307.456 98.773c-11.435 0-21.547 2.475-30.080 7.381-42.411 24.448-49.92 109.44-20.693 224.128 38.731-9.119 85.784-16.673 133.752-21.066l4.19-0.31c28.61-40.451 57.346-75.851 88.205-109.26l-0.653 0.716c-66.56-64.811-129.579-101.589-174.72-101.589zM716.587 967.552c-0.043 0-0.043 0 0 0-60.8 0-138.88-45.781-219.904-128.981l-14.507-14.891 14.507-14.891c36.663-38.090 70.602-79.438 101.126-123.338l2.17-3.297 5.76-8.235 9.984-0.853c60.002-4.793 115.118-14 168.539-27.471l-6.961 1.487 20.139-5.077 5.717 19.968c42.112 148.651 29.355 255.275-35.157 292.437-14.374 8.272-31.607 13.151-49.98 13.151-0.504 0-1.007-0.004-1.509-0.011l0.076 0.001zM541.824 823.296c66.56 64.811 129.579 101.589 174.72 101.589h0.043c11.392 0 21.547-2.475 30.037-7.381 42.411-24.448 49.963-109.483 20.693-224.171-38.768 9.137-85.837 16.691-133.824 21.070l-4.16 0.306c-28.571 40.473-57.296 75.887-88.158 109.297l0.648-0.71zM797.44 381.653l-20.139-5.077c-46.487-12.029-101.603-21.252-158.039-25.797l-3.539-0.229-9.984-0.853-5.76-8.235c-32.67-47.183-66.61-88.519-103.593-126.902l0.297 0.31-14.507-14.891 14.507-14.891c106.411-109.227 207.957-152.363 271.317-115.883 64.512 37.205 77.312 143.787 35.157 292.48zM629.333 308.907c48.725 4.437 95.019 11.648 137.984 21.376 29.269-114.688 21.717-199.68-20.693-224.128-42.155-24.363-121.387 12.971-204.8 94.208 30.188 32.69 58.911 68.089 85.298 105.262l2.212 3.282zM307.456 967.552c-0.439 0.007-0.956 0.011-1.475 0.011-18.373 0-35.607-4.88-50.476-13.414l0.495 0.262c-64.512-37.163-77.312-143.744-35.115-292.437l5.632-19.968 20.139 5.077c49.28 12.416 103.637 21.163 161.493 25.984l10.027 0.853 5.717 8.235c32.719 47.191 66.671 88.538 103.646 126.955l-0.307-0.321 14.507 14.891-14.507 14.891c-80.981 83.2-159.061 128.981-219.776 128.981zM256.683 693.333c-29.269 114.688-21.717 199.723 20.693 224.171 42.112 24.021 121.301-13.013 204.8-94.208-30.181-32.703-58.917-68.115-85.33-105.292l-2.222-3.294c-52.126-4.681-99.18-12.235-145.102-22.757l7.161 1.381zM512 720.128c-35.115 0-71.211-1.536-107.349-4.523l-10.027-0.853-5.76-8.235c-17.419-24.566-36.456-54.116-54.294-84.456l-3.306-6.082c-14.479-24.255-31.065-55.411-46.384-87.29l-3.365-7.771-4.267-9.088 4.267-9.088c18.676-39.64 35.262-70.796 53.052-101.162l-3.303 6.1c17.664-30.549 37.077-61.013 57.6-90.539l5.76-8.235 10.027-0.853c32.164-2.894 69.575-4.544 107.371-4.544s75.208 1.65 112.166 4.882l-4.795-0.338 9.984 0.853 5.717 8.235c37.651 53.308 73.422 114.148 104.065 177.917l3.327 7.683 4.309 9.088-4.309 9.088c-33.853 71.409-69.628 132.255-110.056 189.584l2.664-3.984-5.717 8.235-9.984 0.853c-36.139 2.987-72.277 4.523-107.392 4.523zM418.261 673.877c63.147 4.736 124.331 4.736 187.52 0 32.123-46.25 63.305-99.337 90.466-154.753l3.23-7.295c-30.297-62.657-61.496-115.748-96.387-166.086l2.648 4.038c-28.060-2.262-60.749-3.552-93.739-3.552s-65.677 1.29-98.016 3.821l4.277-0.269c-32.27 46.312-63.469 99.404-90.57 154.865l-3.169 7.183c30.431 62.72 61.625 115.806 96.447 166.192l-2.709-4.144z"></path>
    </symbol>
    <symbol id="figma"  viewBox="0 0 1024 1024">
        <g></g>
        <path fill="#f24e1e"
            d="M512 512c0-94.257 76.41-170.667 170.667-170.667s170.667 76.41 170.667 170.667v0c0 94.257-76.41 170.667-170.667 170.667s-170.667-76.41-170.667-170.667v0zM170.667 853.333c0-94.257 76.41-170.667 170.667-170.667v0h170.667v170.667c0 94.257-76.41 170.667-170.667 170.667s-170.667-76.41-170.667-170.667v0zM512 0v341.333h170.667c94.257 0 170.667-76.41 170.667-170.667s-76.41-170.667-170.667-170.667v0zM170.667 170.667c0 94.257 76.41 170.667 170.667 170.667v0h170.667v-341.333h-170.667c-94.257 0-170.667 76.41-170.667 170.667v0zM170.667 512c0 94.257 76.41 170.667 170.667 170.667v0h170.667v-341.333h-170.667c-94.257 0-170.667 76.41-170.667 170.667v0z"></path>
    </symbol>
    <symbol id="bootstrap"  viewBox="0 0 1024 1024">
        <g></g>
        <path fill="#563d7c"
            d="M853.333 0h-682.667c-94.165 0.256-170.411 76.501-170.667 170.667v682.667c0 93.867 76.8 170.667 170.667 170.667h682.667c93.867 0 170.667-76.8 170.667-170.667v-682.667c0-93.867-76.8-170.667-170.667-170.667zM760.021 719.147c-8.533 20.565-22.059 38.699-39.381 52.651-17.92 14.507-40.619 26.453-68.565 34.987-27.904 8.661-61.099 13.013-99.541 13.013h-274.432v-597.333h290.219c53.675 0 96.683 12.075 128.853 36.693 32.427 24.747 48.555 61.611 48.555 111.36 0 30.080-7.339 55.893-22.101 77.227-14.677 21.205-35.84 37.803-63.147 49.323v1.963c36.437 7.68 64.64 24.96 83.2 51.84s28.075 60.843 28.075 101.845c0 22.955-4.437 44.8-12.8 65.195zM641.579 571.947c-17.493-16-42.069-23.808-73.813-23.808h-184.405v186.368h184.917c31.573 0 56.32-8.192 73.813-24.747 17.493-16.427 26.453-39.851 26.453-69.973-0.299-29.44-8.96-52.224-26.453-67.84zM615.979 451.499c16.896-14.336 25.173-34.859 25.173-61.611 0-30.037-7.467-51.371-22.613-63.573-15.019-12.16-36.693-18.475-65.195-18.475h-170.667v164.821h170.667c24.875 0 46.080-7.253 62.635-21.163z"></path>
    </symbol>
    <symbol id="javascript"  viewBox="0 0 1024 1024">
        <g></g>
        <path fill="#f7df1e"
            d="M0 0h1024v1024h-1024zM940.117 779.776c-7.467-46.72-37.888-85.973-128.128-122.581-31.403-14.72-66.304-24.96-76.672-48.64-3.883-14.080-4.48-21.76-1.963-30.080 6.4-27.563 39.040-35.84 64.64-28.16 16.64 5.12 32 17.92 41.643 38.4 44.117-28.843 44.117-28.843 74.88-48-11.52-17.92-17.237-25.643-25.003-33.28-26.88-30.080-62.677-45.44-120.917-44.117l-30.080 3.797c-28.843 7.040-56.32 22.4-72.96 42.88-48.64 55.083-34.603 151.083 24.277 190.763 58.24 43.52 143.403 53.077 154.283 94.080 10.24 49.92-37.12 65.92-83.883 60.16-34.603-7.68-53.76-25.003-74.88-57.003l-78.080 44.843c8.96 20.48 19.2 29.397 34.56 47.317 74.24 74.923 259.84 71.083 293.163-42.837 1.237-3.84 10.24-30.080 3.157-70.4zM556.843 470.656h-95.915c0 82.688-0.384 164.864-0.384 247.68 0 52.565 2.688 100.821-5.888 115.669-14.080 29.397-50.347 25.643-66.816 20.48-16.896-8.363-25.472-19.883-35.413-36.48-2.688-4.48-4.693-8.363-5.419-8.363l-77.867 48c13.013 26.88 32 50.005 56.491 64.725 36.48 21.76 85.504 28.8 136.832 17.28 33.408-9.643 62.208-29.483 77.269-60.203 21.76-39.68 17.152-88.32 16.939-142.763 0.512-87.637 0-175.317 0-263.637z"></path>
    </symbol>
</svg>